# xmcd
# Track frame offsets:
# 150
# 28081
# 46810
# 61289
# 76845
# 107592
# 126562
# 144800
# 166306
# 185463
#
# Disc length: 2741 seconds
# Revision: 0
# Processed by: cddbd v1.5.2PL0 Copyright (c) Steve Scherf et al.
# Submitted via: VisiTrax 2.10.3.257 - For more info visit www.synapsa.com
#
DISCID=7d0ab30a
DTITLE=Murphey, Michael - peaks, valleys, honkytonks and alleys
DYEAR=1900
DGENRE=Country
TTITLE0=Cosmic Cowboy/Cosmic Breakdown
TTITLE1=Another Cheap Western/Western Movies
TTITLE2=Years Behind Bars
TTITLE3=Backslider's Wine
TTITLE4=Geronimo's Cadillac
TTITLE5=South Coast
TTITLE6=Chain Gang
TTITLE7=Once A Drifter
TTITLE8=Texas Morning
TTITLE9=Lightning
EXTD=
EXTT0=
EXTT1=
EXTT2=
EXTT3=
EXTT4=
EXTT5=
EXTT6=
EXTT7=
EXTT8=
EXTT9=
PLAYORDER=
